<?xml version="1.0" encoding="utf-8"?>
<!-- Generator: Adobe Illustrator 16.0.0, SVG Export Plug-In . SVG Version: 6.00 Build 0)  -->
<!DOCTYPE svg PUBLIC "-//W3C//DTD SVG 1.1//EN" "http://www.w3.org/Graphics/SVG/1.1/DTD/svg11.dtd">
<svg version="1.1" id="圖層_1" xmlns="http://www.w3.org/2000/svg" xmlns:xlink="http://www.w3.org/1999/xlink" x="0px" y="0px"
	 width="92.102px" height="105.271px" viewBox="0 0 92.102 105.271" enable-background="new 0 0 92.102 105.271"
	 xml:space="preserve">
<g>
	<polygon fill="#837E2C" points="92.102,95.292 74.815,105.271 57.53,95.292 57.53,75.331 74.815,65.351 92.102,75.331 	"/>
	<polygon fill="#605551" points="53.752,29.94 36.466,39.92 19.18,29.94 19.18,9.98 36.466,0 53.752,9.98 	"/>
	<polygon fill="#6F7183" points="72.533,62.958 55.247,72.938 37.961,62.958 37.961,42.998 55.247,33.018 72.533,42.998 	"/>
	<polygon fill="#7E7973" points="34.572,62.958 17.286,72.938 0,62.958 0,42.998 17.286,33.018 34.572,42.998 	"/>
	<polygon fill="#592B33" points="92.102,29.94 74.815,39.92 57.53,29.94 57.53,9.979 74.815,0 92.102,9.979 	"/>
</g>
</svg>
